<?xml version="1.0" encoding="UTF-8"?>
<svg xmlns="http://www.w3.org/2000/svg" xmlns:xlink="http://www.w3.org/1999/xlink" width="50px" height="50px" viewBox="0 0 50 50" version="1.1">
<g id="surface1">
<path style=" stroke:none;fill-rule:nonzero;fill:rgb(0%,0%,0%);fill-opacity:1;" d="M 22.851562 5.148438 C 21.621094 5.320312 20.738281 5.550781 19.5 6.03125 C 16.351562 7.25 13.699219 9.691406 12.28125 12.699219 C 11.441406 14.460938 11.101562 15.941406 11.03125 18.03125 C 10.949219 20.410156 11.191406 21.621094 12.378906 24.851562 C 13.769531 28.601562 17.820312 35.789062 22.050781 42 C 24.21875 45.191406 24.769531 45.929688 24.910156 45.839844 C 25.21875 45.648438 29.101562 39.96875 31.058594 36.851562 C 35.101562 30.390625 37.410156 25.71875 38.421875 21.898438 C 38.679688 20.898438 38.730469 20.519531 38.78125 19.070312 C 38.808594 17.960938 38.78125 17.128906 38.699219 16.621094 C 38.089844 12.898438 36.339844 9.980469 33.421875 7.800781 C 32.449219 7.078125 30.890625 6.210938 29.929688 5.859375 C 27.871094 5.109375 25.121094 4.828125 22.851562 5.148438 Z M 22.851562 5.148438 "/>
</g>
</svg>
