<svg width="40" height="50" viewBox="0 0 40 50" xmlns="http://www.w3.org/2000/svg" xmlns:xlink="http://www.w3.org/1999/xlink"><defs><filter x="-2.3%" y="-3.7%" width="104.1%" height="107.5%" filterUnits="objectBoundingBox" id="a"><feOffset dy="2" in="SourceAlpha" result="shadowOffsetOuter1"/><feGaussianBlur stdDeviation="3" in="shadowOffsetOuter1" result="shadowBlurOuter1"/><feColorMatrix values="0 0 0 0 0.192156863 0 0 0 0 0.207843137 0 0 0 0 0.231372549 0 0 0 0.12 0" in="shadowBlurOuter1" result="shadowMatrixOuter1"/><feMerge><feMergeNode in="shadowMatrixOuter1"/><feMergeNode in="SourceGraphic"/></feMerge></filter><path d="M14 20.196c-3.314 0-6-2.657-6-5.935 0-3.278 2.686-5.935 6-5.935s6 2.657 6 5.935c0 3.278-2.686 5.935-6 5.935M13.998 0C6.144 0 0 5.87 0 13.42c0 9.57 8.892 20.087 12.502 23.937.404.431.95.645 1.494.643a2.028 2.028 0 0 0 1.488-.653C19.09 33.464 28 22.99 28 13.143 28 6.25 22.32 0 13.998 0" id="b"/></defs><g filter="url(#a)" transform="translate(-596 -270)" fill="none" fill-rule="evenodd"><use fill="#ff6600" xlink:href="#b" transform="translate(602 274)"/></g></svg>