<?xml version="1.0" standalone="no"?>
<!DOCTYPE svg PUBLIC "-//W3C//DTD SVG 20010904//EN"
 "http://www.w3.org/TR/2001/REC-SVG-20010904/DTD/svg10.dtd">
<svg version="1.0" xmlns="http://www.w3.org/2000/svg"
 width="500.000000pt" height="500.000000pt" viewBox="0 0 500.000000 500.000000"
 preserveAspectRatio="xMidYMid meet">

<g transform="translate(0.000000,500.000000) scale(0.100000,-0.100000)"
fill="#000000" stroke="none">
<path d="M2365 4504 c-495 -47 -924 -334 -1132 -757 -101 -203 -138 -365 -137
-597 1 -186 17 -283 80 -475 155 -472 525 -1141 1103 -1994 102 -151 190 -280
194 -285 12 -17 52 36 291 389 254 377 405 613 573 900 262 446 441 839 521
1138 25 96 26 115 26 307 -1 226 -9 277 -69 456 -63 190 -169 358 -320 509
-259 257 -588 399 -953 409 -76 2 -155 2 -177 0z m198 -328 c18 -8 223 -206
474 -457 387 -389 442 -449 448 -481 20 -109 -54 -198 -163 -198 l-39 0 -6
-82 c-4 -46 -7 -193 -7 -328 0 -273 -4 -294 -71 -357 -69 -65 -47 -63 -704
-63 -572 0 -597 1 -634 20 -50 25 -98 73 -116 117 -11 26 -15 107 -18 364 l-5
331 -60 1 c-53 2 -65 6 -92 32 -18 17 -38 42 -46 57 -18 35 -18 102 0 136 21
39 886 899 916 911 36 14 86 13 123 -3z"/>
<path d="M2315 3052 c-76 -6 -75 -2 -75 -299 0 -250 1 -264 20 -283 19 -19 33
-20 240 -20 207 0 221 1 240 20 19 19 20 33 20 279 0 232 -2 261 -17 279 -17
20 -30 21 -203 24 -102 2 -203 2 -225 0z"/>
</g>
</svg>
